<mxfile host="app.diagrams.net" modified="2023-05-13T07:45:31.514Z" agent="Mozilla/5.0 (Windows NT 10.0; Win64; x64) AppleWebKit/537.36 (KHTML, like Gecko) Chrome/112.0.0.0 Safari/537.36" version="21.3.0" etag="bYVaFfZuwRh1E68YtfSb" type="github">
  <diagram name="第 1 页" id="wIqSUEGo72H45PjjTKhU">
    <mxGraphModel>
      <root>
        <mxCell id="0" />
        <mxCell id="1" parent="0" />
      </root>
    </mxGraphModel>
  </diagram>
</mxfile>
